{
  "accessors": [
    {
      "bufferView": 2,
      "componentType": 5126,
      "count": 2417,
      "max": [
        2.5186543464660645,
        2.5186548233032227,
        2.5728840827941895
      ],
      "min": [
        -2.5186548233032227,
        -2.5186538696289062,
        -1.3269140720367432
      ],
      "type": "VEC3"
    },
    {
      "bufferView": 2,
      "byteOffset": 29004,
      "componentType": 5126,
      "count": 2417,
      "max": [
        0.99454224109649658,
        0.99504554271697998,
        0.99974536895751953
      ],
      "min": [
        -0.99814367294311523,
        -0.99714964628219604,
        -0.99998420476913452
      ],
      "type": "VEC3"
    },
    {
      "bufferView": 3,
      "componentType": 5126,
      "count": 2417,
      "max": [
        0.9999813437461853,
        0.99787980318069458,
        1,
        1
      ],
      "min": [
        -0.99938929080963135,
        -0.99988675117492676,
        -0.99953234195709229,
        -1
      ],
      "type": "VEC4"
    },
    {
      "bufferView": 1,
      "componentType": 5126,
      "count": 2417,
      "max": [
        0.99752998352050781,
        0.96582436561584473
      ],
      "min": [
        0.0024177655577659607,
        0.0024076858535408974
      ],
      "type": "VEC2"
    },
    {
      "bufferView": 0,
      "componentType": 5125,
      "count": 8448,
      "max": [
        2416
      ],
      "min": [
        0
      ],
      "type": "SCALAR"
    },
    {
      "bufferView": 2,
      "byteOffset": 58008,
      "componentType": 5126,
      "count": 164,
      "max": [
        1.4456033706665039,
        1.4456037282943726,
        3.4942128658294678
      ],
      "min": [
        -1.4456033706665039,
        -1.4456032514572144,
        0.8781360387802124
      ],
      "type": "VEC3"
    },
    {
      "bufferView": 2,
      "byteOffset": 59976,
      "componentType": 5126,
      "count": 164,
      "max": [
        0.96592605113983154,
        0.96592593193054199,
        0.99775046110153198
      ],
      "min": [
        -0.96592599153518677,
        -0.96592593193054199,
        -0.98486727476119995
      ],
      "type": "VEC3"
    },
    {
      "bufferView": 3,
      "byteOffset": 38672,
      "componentType": 5126,
      "count": 164,
      "max": [
        0.99109220504760742,
        0.99984943866729736,
        0.27082708477973938,
        1
      ],
      "min": [
        -0.99109244346618652,
        -0.99984967708587646,
        -0.19468726217746735,
        1
      ],
      "type": "VEC4"
    },
    {
      "bufferView": 1,
      "byteOffset": 19336,
      "componentType": 5126,
      "count": 164,
      "max": [
        0.88863086700439453,
        0.89971804618835449
      ],
      "min": [
        0.0024112537503242493,
        0.0024083629250526428
      ],
      "type": "VEC2"
    },
    {
      "bufferView": 0,
      "byteOffset": 33792,
      "componentType": 5125,
      "count": 636,
      "max": [
        163
      ],
      "min": [
        0
      ],
      "type": "SCALAR"
    }
  ],
  "asset": {
    "extras": {
      "author": "Batuhan13 (https://sketchfab.com/Batuhan13)",
      "license": "CC-BY-4.0 (http://creativecommons.org/licenses/by/4.0/)",
      "source": "https://sketchfab.com/3d-models/ufo-cbdcd50550d440e6b7b6060adce4ee6a",
      "title": "Ufo"
    },
    "generator": "Sketchfab-8.25.0",
    "version": "2.0"
  },
  "bufferViews": [
    {
      "buffer": 0,
      "byteLength": 36336,
      "byteOffset": 0,
      "name": "floatBufferViews",
      "target": 34963
    },
    {
      "buffer": 0,
      "byteLength": 20648,
      "byteOffset": 36336,
      "byteStride": 8,
      "name": "floatBufferViews",
      "target": 34962
    },
    {
      "buffer": 0,
      "byteLength": 61944,
      "byteOffset": 56984,
      "byteStride": 12,
      "name": "floatBufferViews",
      "target": 34962
    },
    {
      "buffer": 0,
      "byteLength": 41296,
      "byteOffset": 118928,
      "byteStride": 16,
      "name": "floatBufferViews",
      "target": 34962
    }
  ],
  "buffers": [
    {
      "byteLength": 160224,
      "uri": "scene.bin"
    }
  ],
  "images": [
    {
      "uri": "textures/material_baseColor.png"
    },
    {
      "uri": "textures/material_metallicRoughness.png"
    },
    {
      "uri": "textures/material_normal.png"
    },
    {
      "uri": "textures/UfoGlass_baseColor.png"
    }
  ],
  "materials": [
    {
      "doubleSided": true,
      "emissiveFactor": [
        0,
        0,
        0
      ],
      "name": "material",
      "normalTexture": {
        "index": 2,
        "scale": 1,
        "texCoord": 0
      },
      "pbrMetallicRoughness": {
        "baseColorFactor": [
          1,
          1,
          1,
          1
        ],
        "baseColorTexture": {
          "index": 0,
          "texCoord": 0
        },
        "metallicFactor": 1,
        "metallicRoughnessTexture": {
          "index": 1,
          "texCoord": 0
        },
        "roughnessFactor": 0.24681817257043082
      }
    },
    {
      "alphaMode": "BLEND",
      "doubleSided": true,
      "emissiveFactor": [
        0,
        0,
        0
      ],
      "name": "UfoGlass",
      "normalTexture": {
        "index": 2,
        "scale": 1,
        "texCoord": 0
      },
      "pbrMetallicRoughness": {
        "baseColorFactor": [
          1,
          1,
          1,
          0
        ],
        "baseColorTexture": {
          "index": 3,
          "texCoord": 0
        },
        "metallicFactor": 0,
        "roughnessFactor": 0.013787888035629735
      }
    }
  ],
  "meshes": [
    {
      "name": "Cylinder_Ufo_0",
      "primitives": [
        {
          "attributes": {
            "NORMAL": 1,
            "POSITION": 0,
            "TANGENT": 2,
            "TEXCOORD_0": 3
          },
          "indices": 4,
          "material": 0,
          "mode": 4
        }
      ]
    },
    {
      "name": "Cylinder.001_UfoGlass_0",
      "primitives": [
        {
          "attributes": {
            "NORMAL": 6,
            "POSITION": 5,
            "TANGENT": 7,
            "TEXCOORD_0": 8
          },
          "indices": 9,
          "material": 1,
          "mode": 4
        }
      ]
    }
  ],
  "nodes": [
    {
      "children": [
        1
      ],
      "name": "RootNode (gltf orientation matrix)",
      "rotation": [
        -0.70710678118654746,
        -0,
        -0,
        0.70710678118654757
      ]
    },
    {
      "children": [
        2
      ],
      "name": "RootNode (model correction matrix)"
    },
    {
      "children": [
        3
      ],
      "matrix": [
        1,
        0,
        0,
        0,
        0,
        0,
        1,
        0,
        0,
        -1,
        0,
        0,
        0,
        0,
        0,
        1
      ],
      "name": "Ufo.fbx"
    },
    {
      "children": [
        4,
        6
      ],
      "name": "RootNode"
    },
    {
      "children": [
        5
      ],
      "matrix": [
        100,
        0,
        0,
        0,
        0,
        -1.6292067939183141e-05,
        -99.999999999998678,
        0,
        0,
        99.999999999998678,
        -1.6292067939183141e-05,
        0,
        0,
        -70.502685546875,
        2.0726500224554911e-05,
        1
      ],
      "name": "Cylinder"
    },
    {
      "mesh": 0,
      "name": "Cylinder_Ufo_0"
    },
    {
      "children": [
        7
      ],
      "matrix": [
        100,
        0,
        0,
        0,
        -0,
        -1.6292067939183141e-05,
        -99.999999999998678,
        0,
        0,
        99.999999999998678,
        -1.6292067939183141e-05,
        0,
        -1.9543974758562399e-06,
        -70.502685546875,
        2.0726500224554911e-05,
        1
      ],
      "name": "Cylinder.001"
    },
    {
      "mesh": 1,
      "name": "Cylinder.001_UfoGlass_0"
    }
  ],
  "samplers": [
    {
      "magFilter": 9729,
      "minFilter": 9987,
      "wrapS": 10497,
      "wrapT": 10497
    }
  ],
  "scene": 0,
  "scenes": [
    {
      "name": "OSG_Scene",
      "nodes": [
        0
      ]
    }
  ],
  "textures": [
    {
      "sampler": 0,
      "source": 0
    },
    {
      "sampler": 0,
      "source": 1
    },
    {
      "sampler": 0,
      "source": 2
    },
    {
      "sampler": 0,
      "source": 3
    }
  ]
}

