{
  "accessors": [
    {
      "bufferView": 2,
      "componentType": 5126,
      "count": 689,
      "max": [
        0.01017548143863678,
        0.010175482369959354,
        0.0075798002071678638
      ],
      "min": [
        -0.010175482369959354,
        -0.010175479575991631,
        -0.032697267830371857
      ],
      "type": "VEC3"
    },
    {
      "bufferView": 2,
      "byteOffset": 8268,
      "componentType": 5126,
      "count": 689,
      "max": [
        1,
        1,
        1
      ],
      "min": [
        -1,
        -1,
        -1
      ],
      "type": "VEC3"
    },
    {
      "bufferView": 3,
      "componentType": 5126,
      "count": 689,
      "max": [
        0.98209446668624878,
        0.88229012489318848,
        1,
        1
      ],
      "min": [
        -0.98245209455490112,
        -0.97968840599060059,
        -0.19849151372909546,
        1
      ],
      "type": "VEC4"
    },
    {
      "bufferView": 1,
      "componentType": 5126,
      "count": 689,
      "max": [
        0.98949825763702393,
        0.98449099063873291
      ],
      "min": [
        0.01050180196762085,
        0.015235375612974167
      ],
      "type": "VEC2"
    },
    {
      "bufferView": 0,
      "componentType": 5125,
      "count": 2100,
      "max": [
        688
      ],
      "min": [
        0
      ],
      "type": "SCALAR"
    },
    {
      "bufferView": 2,
      "byteOffset": 16536,
      "componentType": 5126,
      "count": 473,
      "max": [
        0.0090123675763607025,
        0.021651972085237503,
        0.0090123657137155533
      ],
      "min": [
        -0.0090123675763607025,
        -0.0079447049647569656,
        -0.0090123675763607025
      ],
      "type": "VEC3"
    },
    {
      "bufferView": 2,
      "byteOffset": 22212,
      "componentType": 5126,
      "count": 473,
      "max": [
        0.99979269504547119,
        0.99946492910385132,
        0.99979269504547119
      ],
      "min": [
        -0.99979269504547119,
        -1,
        -0.99979269504547119
      ],
      "type": "VEC3"
    },
    {
      "bufferView": 3,
      "byteOffset": 11024,
      "componentType": 5126,
      "count": 473,
      "max": [
        0.94187867641448975,
        0.8780745267868042,
        0.93987268209457397,
        1
      ],
      "min": [
        -0.94122618436813354,
        -0.88246136903762817,
        -0.93950313329696655,
        1
      ],
      "type": "VEC4"
    },
    {
      "bufferView": 1,
      "byteOffset": 5512,
      "componentType": 5126,
      "count": 473,
      "max": [
        0.98725080490112305,
        0.97920596599578857
      ],
      "min": [
        0.014211654663085938,
        0.023901611566543579
      ],
      "type": "VEC2"
    },
    {
      "bufferView": 0,
      "byteOffset": 8400,
      "componentType": 5125,
      "count": 2394,
      "max": [
        472
      ],
      "min": [
        0
      ],
      "type": "SCALAR"
    }
  ],
  "asset": {
    "extras": {
      "author": "lluismartinezborrell (https://sketchfab.com/lluismartinezborrell)",
      "license": "CC-BY-4.0 (http://creativecommons.org/licenses/by/4.0/)",
      "source": "https://sketchfab.com/3d-models/9mm-bullet-dac549f6a99d4856b12cc814828637de",
      "title": "9mm bullet"
    },
    "generator": "Sketchfab-7.7.0",
    "version": "2.0"
  },
  "bufferViews": [
    {
      "buffer": 0,
      "byteLength": 17976,
      "byteOffset": 0,
      "name": "floatBufferViews",
      "target": 34963
    },
    {
      "buffer": 0,
      "byteLength": 9296,
      "byteOffset": 17976,
      "byteStride": 8,
      "name": "floatBufferViews",
      "target": 34962
    },
    {
      "buffer": 0,
      "byteLength": 27888,
      "byteOffset": 27272,
      "byteStride": 12,
      "name": "floatBufferViews",
      "target": 34962
    },
    {
      "buffer": 0,
      "byteLength": 18592,
      "byteOffset": 55160,
      "byteStride": 16,
      "name": "floatBufferViews",
      "target": 34962
    }
  ],
  "buffers": [
    {
      "byteLength": 73752,
      "uri": "scene.bin"
    }
  ],
  "images": [
    {
      "uri": "textures/shell_baseColor.png"
    },
    {
      "uri": "textures/shell_metallicRoughness.png"
    },
    {
      "uri": "textures/shell_normal.png"
    },
    {
      "uri": "textures/bullet_baseColor.jpeg"
    },
    {
      "uri": "textures/bullet_metallicRoughness.png"
    },
    {
      "uri": "textures/bullet_normal.png"
    }
  ],
  "materials": [
    {
      "doubleSided": true,
      "emissiveFactor": [
        0,
        0,
        0
      ],
      "name": "shell",
      "normalTexture": {
        "index": 2,
        "scale": 1,
        "texCoord": 0
      },
      "pbrMetallicRoughness": {
        "baseColorFactor": [
          1,
          1,
          1,
          1
        ],
        "baseColorTexture": {
          "index": 0,
          "texCoord": 0
        },
        "metallicFactor": 1,
        "metallicRoughnessTexture": {
          "index": 1,
          "texCoord": 0
        },
        "roughnessFactor": 1
      }
    },
    {
      "doubleSided": true,
      "emissiveFactor": [
        0,
        0,
        0
      ],
      "name": "bullet",
      "normalTexture": {
        "index": 5,
        "scale": 1,
        "texCoord": 0
      },
      "pbrMetallicRoughness": {
        "baseColorFactor": [
          1,
          1,
          1,
          1
        ],
        "baseColorTexture": {
          "index": 3,
          "texCoord": 0
        },
        "metallicFactor": 1,
        "metallicRoughnessTexture": {
          "index": 4,
          "texCoord": 0
        },
        "roughnessFactor": 1
      }
    }
  ],
  "meshes": [
    {
      "name": "9mm_Shell_shell_0",
      "primitives": [
        {
          "attributes": {
            "NORMAL": 1,
            "POSITION": 0,
            "TANGENT": 2,
            "TEXCOORD_0": 3
          },
          "indices": 4,
          "material": 0,
          "mode": 4
        }
      ]
    },
    {
      "name": "9mm_Bullet_bullet_0",
      "primitives": [
        {
          "attributes": {
            "NORMAL": 6,
            "POSITION": 5,
            "TANGENT": 7,
            "TEXCOORD_0": 8
          },
          "indices": 9,
          "material": 1,
          "mode": 4
        }
      ]
    }
  ],
  "nodes": [
    {
      "children": [
        1
      ],
      "name": "RootNode (gltf orientation matrix)",
      "rotation": [
        -0.70710678118654746,
        -0,
        -0,
        0.70710678118654757
      ]
    },
    {
      "children": [
        2
      ],
      "name": "RootNode (model correction matrix)"
    },
    {
      "children": [
        3
      ],
      "matrix": [
        1,
        0,
        0,
        0,
        0,
        0,
        1,
        0,
        0,
        -1,
        0,
        0,
        0,
        0,
        0,
        1
      ],
      "name": "8316685461914b22adba8ff2dc53ed60.fbx"
    },
    {
      "children": [
        4,
        6
      ],
      "name": "RootNode"
    },
    {
      "children": [
        5
      ],
      "matrix": [
        100,
        0,
        0,
        0,
        0,
        99.999999999999716,
        -7.5497901264043296e-06,
        0,
        0,
        7.5497901264043296e-06,
        99.999999999999716,
        0,
        -5.6508013718969572e-16,
        0.018530536442995071,
        0.2334892749786377,
        1
      ],
      "name": "9mm_Shell"
    },
    {
      "mesh": 0,
      "name": "9mm_Shell_shell_0"
    },
    {
      "children": [
        7
      ],
      "matrix": [
        100,
        0,
        0,
        0,
        -0,
        -1.6292067939183141e-05,
        -99.999999999998678,
        0,
        0,
        99.999999999998678,
        -1.6292067939183141e-05,
        0,
        -5.4764740504181417e-16,
        0.022662628442049026,
        2.2435128688812256,
        1
      ],
      "name": "9mm_Bullet"
    },
    {
      "mesh": 1,
      "name": "9mm_Bullet_bullet_0"
    }
  ],
  "samplers": [
    {
      "magFilter": 9729,
      "minFilter": 9987,
      "wrapS": 10497,
      "wrapT": 10497
    }
  ],
  "scene": 0,
  "scenes": [
    {
      "name": "OSG_Scene",
      "nodes": [
        0
      ]
    }
  ],
  "textures": [
    {
      "sampler": 0,
      "source": 0
    },
    {
      "sampler": 0,
      "source": 1
    },
    {
      "sampler": 0,
      "source": 2
    },
    {
      "sampler": 0,
      "source": 3
    },
    {
      "sampler": 0,
      "source": 4
    },
    {
      "sampler": 0,
      "source": 5
    }
  ]
}

